HIERARCHY
ROOT Hips
{
 OFFSET 0.000000 0.000000 0.000000
 CHANNELS 6 Xposition Yposition Zposition Yrotation Xrotation Zrotation
 JOINT Chest
 {
  OFFSET 0.000000 9.585900 0.002600
  CHANNELS 3 Yrotation Xrotation Zrotation
  JOINT Chest2
  {
   OFFSET 0.000000 9.601200 -0.005300
   CHANNELS 3 Yrotation Xrotation Zrotation
   JOINT Chest3
   {
    OFFSET 0.000000 9.561800 0.000000
    CHANNELS 3 Yrotation Xrotation Zrotation
    JOINT Chest4
    {
     OFFSET 0.000000 9.552100 0.000000
     CHANNELS 3 Yrotation Xrotation Zrotation
     JOINT Neck
     {
      OFFSET 0.000000 14.453000 0.000000
      CHANNELS 3 Yrotation Xrotation Zrotation
      JOINT Head
      {
       OFFSET 0.000000 8.936500 -0.011300
       CHANNELS 3 Yrotation Xrotation Zrotation
       End Site
       {
        OFFSET 0.000000 17.073600 -0.006000
       }
      }
     }
     JOINT RightCollar
     {
      OFFSET -2.921100 9.558500 0.000000
      CHANNELS 3 Yrotation Xrotation Zrotation
      JOINT RightShoulder
      {
       OFFSET -13.519700 0.000000 0.000000
       CHANNELS 3 Yrotation Xrotation Zrotation
       JOINT RightElbow
       {
        OFFSET 0.000000 -29.696600 0.000000
        CHANNELS 3 Yrotation Xrotation Zrotation
        JOINT RightWrist
        {
         OFFSET 0.000000 -24.004700 0.000000
         CHANNELS 3 Yrotation Xrotation Zrotation
         End Site
         {
          OFFSET 0.000000 -17.728500 0.000000
         }
        }
       }
      }
     }
     JOINT LeftCollar
     {
      OFFSET 2.921100 9.558500 0.000000
      CHANNELS 3 Yrotation Xrotation Zrotation
      JOINT LeftShoulder
      {
       OFFSET 13.519700 0.000000 0.000000
       CHANNELS 3 Yrotation Xrotation Zrotation
       JOINT LeftElbow
       {
        OFFSET 0.000000 -29.696600 0.000000
        CHANNELS 3 Yrotation Xrotation Zrotation
        JOINT LeftWrist
        {
         OFFSET 0.000000 -24.004700 0.000000
         CHANNELS 3 Yrotation Xrotation Zrotation
         End Site
         {
          OFFSET 0.000000 -17.728500 0.000000
         }
        }
       }
      }
     }
    }
   }
  }
 }
 JOINT RightHip
 {
  OFFSET -7.771700 -0.012900 -0.001300
  CHANNELS 3 Yrotation Xrotation Zrotation
  JOINT RightKnee
  {
   OFFSET 0.000000 -40.869800 0.001200
   CHANNELS 3 Yrotation Xrotation Zrotation
   JOINT RightAnkle
   {
    OFFSET 0.000000 -39.717900 0.002100
    CHANNELS 3 Yrotation Xrotation Zrotation
    JOINT RightToe
    {
     OFFSET 0.000000 -4.965400 11.033500
     CHANNELS 3 Yrotation Xrotation Zrotation
     End Site
     {
      OFFSET 0.000000 -1.423100 5.872300
     }
    }
   }
  }
 }
 JOINT LeftHip
 {
  OFFSET 7.771700 -0.012900 -0.001300
  CHANNELS 3 Yrotation Xrotation Zrotation
  JOINT LeftKnee
  {
   OFFSET 0.000000 -40.869800 0.001200
   CHANNELS 3 Yrotation Xrotation Zrotation
   JOINT LeftAnkle
   {
    OFFSET 0.000000 -39.717900 0.002100
    CHANNELS 3 Yrotation Xrotation Zrotation
    JOINT LeftToe
    {
     OFFSET 0.000000 -4.965400 11.033500
     CHANNELS 3 Yrotation Xrotation Zrotation
     End Site
     {
      OFFSET 0.000000 -1.423100 5.872300
     }
    }
   }
  }
 }
}
MOTION
Frames: 13
Frame Time: 0.008333
-188.895171 48.929385 11.187886 175.246995 -32.511432 -3.934493 0.170800 19.527067 2.624068 -0.025197 2.382746 0.270466 -0.038618 3.920717 0.443120 0.035697 16.892937 1.926623 3.816515 18.555278 -3.212483 8.034915 -0.996249 -7.119763 -2.574579 -1.162104 -2.466471 4.104998 -7.434045 -13.434335 -39.113499 -49.222383 91.503742 6.624197 10.818109 -12.974507 -1.412409 -0.831973 1.348274 -7.283936 -4.194432 13.980242 68.114144 -67.602214 -105.612245 3.205576 10.339033 8.337808 0.290193 -52.718517 -5.579777 -179.191936 82.167265 -167.413656 -29.251603 -2.759718 -1.918239 -0.147800 -11.613263 1.210511 -16.017592 -53.751177 21.256075 -73.897064 66.855924 -78.636754 30.343818 7.950135 14.076430 0.290080 -0.169039 0.128904
-188.901065 48.927745 11.190898 175.246407 -32.511941 -3.932116 0.161482 19.531164 2.617439 -0.020263 2.379554 0.269961 -0.043078 3.919687 0.442703 0.034356 16.890713 1.932235 3.818615 18.556844 -3.194272 8.011017 -1.009556 -7.024287 -2.563633 -1.159336 -2.462899 4.098584 -7.450136 -13.418345 -39.100035 -49.226650 91.481987 6.610658 10.778168 -12.991869 -1.402873 -0.833024 1.346304 -7.279254 -4.204888 13.986539 68.126940 -67.597685 -105.608742 3.213273 10.336960 8.345104 0.297469 -52.723790 -5.593137 -179.168681 82.169747 -167.391619 -29.279751 -2.756197 -1.901146 -0.106018 -11.608364 1.191361 -15.999085 -53.756609 21.248859 -73.893870 66.848956 -78.638241 30.360673 7.947750 14.096636 0.274714 -0.168439 0.125473
-188.913258 48.925880 11.194605 175.235035 -32.511049 -3.882249 0.148220 19.535674 2.568638 -0.023621 2.376275 0.269309 -0.043070 3.918424 0.443797 0.032504 16.889921 1.949108 3.817665 18.556234 -3.193205 7.991059 -1.023765 -6.944959 -2.551771 -1.153624 -2.459087 4.104180 -7.493183 -13.384061 -39.060388 -49.234186 91.424388 6.604374 10.794136 -13.007020 -1.388818 -0.841599 1.345123 -7.269560 -4.204520 13.977528 68.142806 -67.594393 -105.613303 3.219313 10.328192 8.357426 0.376039 -52.735166 -5.694473 -179.308468 82.159050 -167.540655 -29.242683 -2.756621 -1.895166 -0.234314 -11.597795 1.213883 -15.915823 -53.776851 21.176925 -73.890471 66.840687 -78.641149 30.400994 7.915745 14.135983 0.228742 -0.144825 0.108424
-188.915834 48.924792 11.200925 175.227113 -32.507724 -3.888266 0.153981 19.538614 2.578455 -0.026126 2.375037 0.271311 -0.045182 3.922386 0.448180 0.040807 16.882783 1.953586 3.806748 18.552077 -3.161339 7.976719 -1.036335 -6.900140 -2.550154 -1.153419 -2.462520 4.106981 -7.512526 -13.357543 -39.065280 -49.237674 91.411930 6.600191 10.795914 -13.021379 -1.382590 -0.846635 1.343345 -7.262118 -4.205534 13.982938 68.156463 -67.585096 -105.629414 3.224639 10.318267 8.386813 0.370514 -52.741351 -5.690173 -179.486176 82.168783 -167.719025 -29.240366 -2.753590 -1.899669 -0.146417 -11.594014 1.193426 -15.878848 -53.793799 21.170721 -73.923828 66.832452 -78.654336 30.408139 7.917674 14.143615 0.225190 -0.145902 0.109365
-188.919144 48.924116 11.208259 175.216089 -32.504259 -3.883809 0.159194 19.541379 2.579658 -0.025246 2.374869 0.269966 -0.044505 3.921735 0.452290 0.045013 16.879056 1.959091 3.801950 18.546485 -3.132286 7.968124 -1.038245 -6.895619 -2.551114 -1.155148 -2.468756 4.109027 -7.521327 -13.342094 -39.104498 -49.229843 91.471187 6.586117 10.788417 -13.068017 -1.372129 -0.851673 1.344521 -7.256554 -4.199524 13.991476 68.188051 -67.574690 -105.664002 3.229822 10.314353 8.405342 0.382803 -52.750600 -5.695641 -179.618897 82.185955 -167.843699 -29.307974 -2.743758 -1.896581 -0.142829 -11.590498 1.189078 -15.866312 -53.800083 21.171815 -73.911716 66.833144 -78.645331 30.424283 7.916636 14.157477 0.211343 -0.144332 0.104216
-188.921473 48.923587 11.217316 175.195212 -32.496415 -3.875725 0.172480 19.539844 2.583219 -0.022448 2.372564 0.272037 -0.046120 3.922438 0.451073 0.048299 16.874290 1.959288 3.802717 18.542040 -3.098270 7.951936 -1.057628 -6.839080 -2.543671 -1.154441 -2.465200 4.104864 -7.528873 -13.330719 -39.112615 -49.226191 91.490204 6.586986 10.797601 -13.092987 -1.356770 -0.855507 1.352575 -7.228882 -4.179186 14.009877 68.239677 -67.560412 -105.731357 3.229923 10.310865 8.386500 0.397317 -52.765428 -5.697002 -179.861043 82.206299 -168.079005 -29.370435 -2.730521 -1.902222 -0.140365 -11.588673 1.187342 -15.827861 -53.816421 21.166935 -73.905635 66.832123 -78.636884 30.439339 7.920215 14.182347 0.194409 -0.147198 0.096881
-188.923148 48.923780 11.226864 175.195770 -32.489243 -3.878294 0.171311 19.539501 2.587769 -0.027176 2.380845 0.274800 -0.042063 3.909693 0.446284 0.051705 16.881108 1.968871 3.799506 18.533880 -3.076459 7.938962 -1.081069 -6.788133 -2.539876 -1.162359 -2.460852 4.130930 -7.551321 -13.266554 -39.060577 -49.246795 91.401597 6.588731 10.800868 -13.113482 -1.341670 -0.867278 1.355333 -7.199639 -4.158614 14.016439 68.265586 -67.558781 -105.716290 3.224634 10.297900 8.347985 0.394545 -52.775479 -5.698979 -179.968677 82.217894 -168.190871 -29.359334 -2.718983 -1.908546 -0.138336 -11.587223 1.185969 -15.782961 -53.839643 21.150678 -73.911122 66.812957 -78.623822 30.452537 7.945374 14.200512 0.190053 -0.158920 0.096095
-188.926631 48.924242 11.236786 175.190068 -32.481140 -3.862207 0.172929 19.535339 2.576172 -0.025709 2.382738 0.276517 -0.043215 3.909755 0.449272 0.069665 16.884905 1.982005 3.792788 18.519640 -3.036555 7.915887 -1.092251 -6.777912 -2.523337 -1.167756 -2.451206 4.127903 -7.557330 -13.248372 -39.046990 -49.264275 91.349211 6.578479 10.786344 -13.123289 -1.350134 -0.880228 1.351692 -7.181426 -4.143753 14.016940 68.274039 -67.557243 -105.710180 3.234172 10.288106 8.396422 0.401330 -52.788373 -5.723095 179.800013 82.231878 -168.425515 -29.362932 -2.711264 -1.925280 -0.135675 -11.585799 1.186193 -15.741709 -53.858731 21.125605 -73.878538 66.806518 -78.598737 30.475536 7.964426 14.233754 0.169801 -0.169872 0.088927
-188.926142 48.926032 11.246347 175.171070 -32.480597 -3.858435 0.194686 19.541104 2.587802 -0.027002 2.378446 0.274482 -0.038306 3.912288 0.450711 0.082626 16.885773 1.992071 3.782907 18.510090 -3.021057 7.901547 -1.109188 -6.746099 -2.518226 -1.174027 -2.446312 4.141892 -7.556690 -13.217765 -39.057137 -49.279822 91.327443 6.575575 10.786534 -13.128561 -1.365623 -0.888574 1.347908 -7.140512 -4.120090 14.026782 68.297390 -67.555221 -105.731270 3.228460 10.282149 8.369302 0.398019 -52.789656 -5.722876 179.485756 82.255502 -168.726282 -29.377166 -2.704659 -1.958015 -0.129287 -11.586510 1.188367 -15.724185 -53.862081 21.133464 -73.876140 66.803316 -78.594817 30.487054 7.968388 14.241579 0.160668 -0.169550 0.084948
-188.928072 48.927703 11.256169 175.163890 -32.474440 -3.843369 0.202930 19.545058 2.583513 -0.031620 2.371458 0.271401 -0.025630 3.922851 0.459464 0.082594 16.876858 1.990880 3.771170 18.502906 -3.015189 7.895035 -1.128802 -6.710838 -2.521564 -1.180034 -2.444649 4.170322 -7.555119 -13.183956 -39.064871 -49.291561 91.337881 6.571024 10.800914 -13.181454 -1.364452 -0.888305 1.353072 -7.096431 -4.097843 14.033194 68.329297 -67.553312 -105.776954 3.221225 10.276047 8.339822 0.413699 -52.801286 -5.742363 179.420127 82.270337 -168.789825 -29.395256 -2.685552 -1.957847 -0.128439 -11.592286 1.176930 -15.695854 -53.874066 21.115042 -73.842907 66.800588 -78.569151 30.504725 7.981407 14.268436 0.143557 -0.173490 0.074071
-188.923854 48.929871 11.266741 175.161968 -32.465325 -3.865646 0.221184 19.543999 2.614709 -0.028089 2.375592 0.275368 -0.026224 3.918130 0.457389 0.091780 16.875885 1.996836 3.755010 18.493566 -3.009994 7.890197 -1.148691 -6.680488 -2.529084 -1.189047 -2.442892 4.200967 -7.552867 -13.154028 -39.061586 -49.309459 91.294104 6.565892 10.799258 -13.190411 -1.339766 -0.890746 1.366514 -7.114362 -4.094471 14.021746 68.313058 -67.552447 -105.740388 3.222171 10.277955 8.343185 0.377848 -52.809309 -5.699362 179.375930 82.290965 -168.830269 -29.380738 -2.673585 -1.975262 -0.120216 -11.592735 1.172566 -15.710342 -53.879890 21.149694 -73.809726 66.789111 -78.533791 30.514439 8.037397 14.277526 0.147244 -0.213797 0.077944
-188.922887 48.932645 11.275663 175.153305 -32.461562 -3.862214 0.239737 19.547922 2.623406 -0.033406 2.371335 0.273228 -0.021106 3.920013 0.459939 0.093395 16.873682 1.999348 3.779651 18.487793 -2.977841 7.857852 -1.164725 -6.670298 -2.516894 -1.192960 -2.435699 4.221385 -7.553092 -13.132370 -39.042372 -49.311802 91.267797 6.551457 10.805081 -13.187554 -1.323201 -0.893710 1.369628 -7.081495 -4.065736 14.031333 68.334982 -67.549513 -105.776695 3.219083 10.284201 8.334009 0.368942 -52.813833 -5.699565 179.171023 82.312824 -169.023988 -29.398626 -2.660251 -1.996660 -0.077612 -11.600788 1.159321 -15.672817 -53.890286 21.137368 -73.809399 66.777171 -78.521652 30.523752 8.046489 14.287221 0.139941 -0.216716 0.078268
-188.922786 48.935114 11.284576 175.148606 -32.452075 -3.854382 0.255553 19.546100 2.626618 -0.035598 2.370608 0.273570 -0.028946 3.914251 0.457466 0.103696 16.875782 2.005393 3.787053 18.484032 -2.965190 7.841079 -1.184002 -6.648991 -2.507323 -1.199983 -2.433296 4.231200 -7.551534 -13.116442 -39.014842 -49.300324 91.255163 6.542627 10.810854 -13.198438 -1.322058 -0.897625 1.368702 -7.036270 -4.036085 14.042943 68.363403 -67.547357 -105.830090 3.224022 10.294234 8.333544 0.361658 -52.823592 -5.708302 179.071583 82.320119 -169.132095 -29.327296 -2.652431 -2.009859 -0.101348 -11.602483 1.153085 -15.652035 -53.903972 21.127098 -73.791163 66.771063 -78.503700 30.540003 8.054892 14.300715 0.125367 -0.217566 0.073514
